<svg xmlns="http://www.w3.org/2000/svg" viewBox="0 0 265.19 196.69"><g id="Layer_2" data-name="Layer 2"><g id="Layer_1-2" data-name="Layer 1"><path d="M0,5.25V4.16C0,4.1.11,4.05.13,4,.94,1.1,2.12.11,5.06.07,10,0,15,0,19.92,0A16,16,0,0,1,22.6.29,4,4,0,0,1,26,3.76q2.41,12.8,4.8,25.58c.35,1.85.74,3.69,1.09,5.53.14.76.45,1.15,1.33,1.09,1.62-.11,3.24-.1,4.87-.12q10.44-.12,20.9-.2a4.11,4.11,0,0,0,2.53-.79c1.36-1,2.74-2,4-3.11A37,37,0,0,0,71.78,25a2.18,2.18,0,0,1,2.09-1.2,26.79,26.79,0,0,1,3,.47,21.48,21.48,0,0,0,10.77-.43,21.5,21.5,0,0,0,7.61-4,3.23,3.23,0,0,1,4.1-.16,36.57,36.57,0,0,0,10.56,4.25c4.8,1.18,9.63,2.26,14.39,3.57a35,35,0,0,1,13.15,6.63,3.35,3.35,0,0,0,1.93.57c2,0,4-.06,6-.09q7.59-.09,15.17-.15a.76.76,0,0,0,.81-.52c.75-1.56,1.5-3.12,2.3-4.65A85.11,85.11,0,0,1,178.7,9c2.29-1.27,3.16-3.48,3.85-5.81a10,10,0,0,1,.4-1.08,4.16,4.16,0,0,1,.36-.77c.39-.61.77-.69,1.34-.25.41.31.79.66,1.17,1a18.49,18.49,0,0,0,7.94,4.46,28.28,28.28,0,0,1,3.8,1.28,55.64,55.64,0,0,0,24.19,4.89,45.1,45.1,0,0,1,4.79.16,20.3,20.3,0,0,0,6.91-.33c1.39-.36,2.73-.92,4.1-1.36,1-.33,1.46-.05,1.49,1.06,0,1.29,0,2.58,0,3.87a4.69,4.69,0,0,0,.7,3.08,13.43,13.43,0,0,1,1.52,2.94c1.25,3.44,2.44,6.89,3.6,10.36a1.09,1.09,0,0,0,1.24.9c4.72-.05,9.45-.05,14.17-.06a4.35,4.35,0,0,1,4.49,3.3,15.36,15.36,0,0,1,.28,6c-.31,2.06-.77,4.09-1.15,6.15q-1.8,9.82-3.6,19.67c-1.22,6.63-2.46,13.26-3.68,19.9q-2.05,11.16-4.11,22.32c-1.36,7.32-2.69,14.64-4.11,21.94-1,5.2-2.16,10.38-3.24,15.56a2.26,2.26,0,0,1-1.78,1.83,6.61,6.61,0,0,1-1.53.19l-43.36.11-13.86,0-40.1.11-15.64,0-39.72.16-26.24.11q-7.86,0-15.72.07a1.07,1.07,0,0,0-1.08.64c-2,3.74-4.09,7.46-6.13,11.19a5.68,5.68,0,0,0-.26.66c.56,0,1,.1,1.46.1l25.16-.15,28.1-.16,29.81-.15,31.89-.16q13.37-.06,26.71-.15l26.79-.16,18.34-.15c3.22,0,6.45-.08,9.67,0a4.42,4.42,0,0,1,4.28,2.91,4.36,4.36,0,0,1-.89,4.81,5.22,5.22,0,0,1-4.08,1.49q-8.13.06-16.26.17c-1,0-2,.09-3.08.15.2.49.35.87.52,1.24a14.66,14.66,0,0,1,1.05,10,14.09,14.09,0,0,1-15,10.75,13.14,13.14,0,0,1-9-4.25,14.32,14.32,0,0,1-2.35-16.82c.14-.29.26-.58.43-1h-2.21l-25.31.16-24.85.15-25.16.16-18.89.11-10.76,0-9.6,0c-.23,0-.47,0-.81.06.22.34.36.56.51.77A14.73,14.73,0,0,1,61,196.3a14.73,14.73,0,0,1-11.1-13.65,16.12,16.12,0,0,1,2.54-9.09c.15-.25.29-.5.49-.87-.54,0-.92-.06-1.3-.06-6.37.05-12.74.09-19.12.16A4.78,4.78,0,0,1,27.82,167a18.75,18.75,0,0,1,1.86-5c3-5.38,5.94-10.79,8.92-16.19a4.88,4.88,0,0,0,.74-3.17c-.62-3.92-1.29-7.83-1.9-11.75-.77-4.93-1.5-9.87-2.26-14.81q-1-6.68-2.09-13.36c-.59-3.81-1.2-7.63-1.78-11.44s-1.16-7.85-1.77-11.77c-1-6.64-2.12-13.27-3.18-19.91-.81-5.13-1.56-10.28-2.42-15.41C22.88,38,21.76,31.68,20.62,25.4c-.91-5-1.9-10-2.83-14.95-.15-.79-.46-1.09-1.32-1.08-3.71.05-7.43,0-11.15,0A4.82,4.82,0,0,1,1.07,7.44,15.31,15.31,0,0,1,0,5.25ZM176.09,141h60.1c1.26,0,1.12.23,1.38-1.11,1.07-5.51,2.09-11,3.11-16.54.22-1.16.34-2.33.52-3.56-.33,0-.55-.06-.78-.06l-13.15.1q-6.08,0-12.15,0l-34.06,0c-1.25,0-1.23,0-1.44,1.21q-1,5.89-2.09,11.78C177.06,135.5,176.59,138.16,176.09,141ZM131.44,83.3c.46,1.25.86,2.36,1.26,3.46,2.85,7.73,5.72,15.45,8.54,23.18a1.15,1.15,0,0,0,1.21.91c1.67,0,3.35.1,5,.09,5.55,0,11.09-.07,16.64-.16,2.42,0,4.84-.23,7.26-.32.62,0,.81-.28.91-.88.49-3,1-5.93,1.55-8.89.39-2.17.41-2.2-1.51-3.33-7.21-4.26-14.45-8.47-21.65-12.76a8.37,8.37,0,0,0-9-.07c-1.34.76-1.68.74-2.71-.42a2.27,2.27,0,0,0-1.91-.82c-1.1,0-2.21,0-3.32,0Zm13.25,37c.11.36.19.65.29.93.61,1.72,1.26,3.43,1.83,5.17a1.21,1.21,0,0,1-.84,1.78c-2.36.94-4.73,1.91-7.14,2.71-5.2,1.73-10.43,3.37-15.66,5-.48.15-.6.36-.49.83.26,1.21.52,2.42.71,3.64.1.61.34.79,1,.79q20.76,0,41.51,0c.66,0,.88-.22,1-.84q1.35-7.72,2.73-15.44c.27-1.51.5-3,.77-4.6Zm36.81-9.78c.37,0,.59,0,.82,0,10.14,0,20.28,0,30.42-.08,9.81-.07,19.61-.24,29.41-.32.85,0,1.08-.31,1.2-1.06.39-2.36.84-4.71,1.28-7.07.2-1.06.09-1.21-.95-1.07-4.5.6-9,1.11-13.47,1.84-6.61,1.08-13.19,2.31-19.78,3.48-3.25.58-6.48,1.18-9.73,1.75-1.29.22-1.69-.13-1.8-1.43,0-.12,0-.25,0-.38l-.15-15.17c0-2.35,0-4.7,0-7,0-1.21-.07-1.24-1.19-1.24a9,9,0,0,1-1.16,0,1.19,1.19,0,0,0-1.42.94q-2.79,7.17-5.64,14.3c-.86,2.18-1.72,4.36-2.64,6.52-.39.92-.8,1-1.73.62-.56-.25-1.11-.52-1.66-.81-.4-.22-.64-.12-.72.32C182.21,106.56,181.86,108.48,181.5,110.51ZM45.23,120.74c1.11,7.05,2.17,13.84,3.24,20.68H67.91c1,0,1.07,0,1-1.07-.15-3.63-.26-7.26-.5-10.89-.19-2.72-.58-5.43-.86-8.14-.06-.57-.26-.76-.88-.75-4.4.09-8.81.13-13.22.17C50.8,120.76,48.12,120.74,45.23,120.74ZM66.3,85.32l-.22,0c-.15.29-.31.57-.43.87-.94,2.37-1.86,4.75-2.79,7.12s-2,5-2.94,7.47c-.38,1-.82,1.29-1.65,1.22a21.36,21.36,0,0,1-2.53-.34c-4.37-1-8.74-1.93-13.11-2.9-.25-.06-.52-.07-.83-.11.63,4.17,1.26,8.22,1.87,12.26.07.49.28.7.81.67,1.15-.07,2.31-.1,3.47-.11q9.21-.14,18.41-.22c.78,0,.89-.31.86-1q-.39-10-.74-19.93ZM33.48,45.44c1.35,8.42,2.49,16.71,4.17,24.92.62-2,1.09-4,1.56-6,.63-2.65,1.25-5.31,1.89-8a18.58,18.58,0,0,1,4.77-8.28c.77-.84,1.47-1.76,2.2-2.65l-.1-.22A143.56,143.56,0,0,0,33.48,45.44ZM249.62,72.66l.33,0c.85-3.25,1.28-6.6,1.91-9.9s1.24-6.68,1.85-10l1.81-10h-8.37Q248.4,57.78,249.62,72.66ZM145.19,44.09l6.58,9.77c1.59-3.35,3.1-6.52,4.66-9.77Zm-31.09,97a14.13,14.13,0,0,1-.34-1.64c-.06-.73-.44-.78-1-.67-2.51.47-5,.91-7.52,1.37-1.44.26-2.87.54-4.31.81l0,.13Z"/></g></g></svg>