<svg xmlns="http://www.w3.org/2000/svg" viewBox="0 0 265.07 196.73"><g id="Layer_2" data-name="Layer 2"><g id="Layer_1-2" data-name="Layer 1"><path d="M39.57,163.4c2.46,0,4.75,0,7,0,2.14,0,4.28-.09,6.42-.12s4.54,0,6.81,0l27.1-.08q14,0,28-.08,14.86-.06,29.73-.15l28.65-.15,26.94-.16q9.53-.06,19.05-.15c5.08,0,10.16-.12,15.25-.15a20.53,20.53,0,0,1,3.92.18,4.45,4.45,0,0,1,3.76,5,4.56,4.56,0,0,1-4.67,4c-4.05.05-8.1,0-12.15.09-2.43,0-4.85.15-7.27.23a4.63,4.63,0,0,0-.47.08c3.47,7.86,2.58,14.74-4.8,19.87a13.62,13.62,0,0,1-15.58-.38c-6.8-5.24-7.71-11.93-4.07-19.59l-117.43.73c.19.33.32.57.46.79,3.27,5.31,3.67,10.76.56,16.26a14.27,14.27,0,0,1-14.15,7,14.54,14.54,0,0,1-12.41-11,15.43,15.43,0,0,1,1.92-11.67c.2-.35.41-.69.7-1.18-.47,0-.78-.09-1.1-.09q-9,.08-18,.17a6.26,6.26,0,0,1-4.5-1.24,4.2,4.2,0,0,1-1.48-4.51,21.53,21.53,0,0,1,1.61-4.48c3.06-5.73,6.21-11.41,9.38-17.08.82-1.46.47-2.89.24-4.36-.76-4.91-1.51-9.83-2.28-14.74-.74-4.7-1.51-9.41-2.25-14.11-.76-4.86-1.49-9.73-2.25-14.59-.62-4-1.28-8.09-1.9-12.13-.67-4.3-1.31-8.61-2-12.91q-1.59-10.11-3.2-20.22c-1-6.1-1.92-12.22-3-18.3-1.35-7.58-2.79-15.14-4.25-22.7-.47-2.46,0-2.05-2.57-2.09-3.4,0-6.81,0-10.22,0A4.84,4.84,0,0,1,.63,6.88a4.35,4.35,0,0,1,0-4.57A4.31,4.31,0,0,1,4.57.07C8,0,11.33,0,14.71,0c2,0,3.92,0,5.88,0A10.6,10.6,0,0,1,23,.41,4,4,0,0,1,26,3.94q2.89,15.21,5.76,30.43c0,.17.1.34.13.52.1.74.46,1,1.24,1,2.58,0,5.16.06,7.74.05,4.62,0,9.23-.1,13.85-.15,4-.05,7.89-.11,11.84-.15l15.41-.16,14.62-.15,14.25-.16L123.73,35l13.7-.16,13.08-.15,13.7-.16,13-.15,13.62-.16,13.23-.15,13.63-.16,13.15-.15,12.23-.16,11.23-.16c1.59,0,3.19-.07,4.79-.11,4.4-.1,5.87,1.86,6,5.83a36.49,36.49,0,0,1-.76,7.12c-1.11,6.32-2.33,12.61-3.5,18.91q-2.16,11.58-4.29,23.17c-1.47,8-2.92,16-4.4,24q-2.58,14-5.22,28.09c-.35,1.9-.71,3.8-1.13,5.68a15.37,15.37,0,0,1-.85,2.56,2.71,2.71,0,0,1-2.53,1.49,8.35,8.35,0,0,1-1,0H214.05l-15.49,0-41.42.13-12.78,0-36.54.13c-2.82,0-5.63,0-8.44,0L68,150.7c-6.92,0-13.83.1-20.75.12a1.22,1.22,0,0,0-1.27.73c-2,3.67-4,7.33-6,11C39.86,162.78,39.75,163,39.57,163.4ZM105,44.49a2.86,2.86,0,0,0,0,.44c1.83,9.5,3.68,19,5.49,28.51.14.75.39,1,1.13.94q5.14-.18,10.29-.27,6.3-.1,12.61-.16c7.15-.07,14.3-.15,21.44-.19s14.51,0,21.76,0c.65,0,.91-.17,1-.81.33-2.08.72-4.16,1.09-6.24q1.76-9.93,3.52-19.85c.19-1,.36-2.11.55-3.27h-1l-11.22.15-13,.16c-4.34.05-8.67.11-13,.15-7,.07-14.08.15-21.13.19-4.93,0-9.86,0-14.79,0C108.19,44.28,106.63,44.41,105,44.49Zm-3.86,29.73a2.33,2.33,0,0,0,0-.39q-2.73-14.22-5.44-28.44c-.13-.71-.44-.84-1.08-.83l-16.56.27q-6.19.09-12.38.15-9.8.1-19.59.19c-3.51,0-7,0-10.53,0-.7,0-1.41.07-2.16.12.71,4.57,1.39,9,2.08,13.42.8,5.14,1.62,10.28,2.4,15.42.1.63.28.87,1,.85,4-.07,8-.09,11.92-.13l14.09-.15,15-.16,20-.2A12.53,12.53,0,0,0,101.16,74.22Zm86.94-.73L250,72.8c1.85-10.06,3.69-20,5.54-30.14h-1.08c-5.44.1-10.88.22-16.32.3-5.08.08-10.17.12-15.25.16l-19.5.16-9.21,0c-.57,0-.83.16-.95.8-1.49,8.55-3,17.08-4.55,25.62C188.45,71,188.3,72.16,188.1,73.49Zm-79.84,37.64c0-.25,0-.35,0-.45q-1.14-6-2.27-11.91c-.92-4.83-1.86-9.66-2.77-14.49-.1-.5-.33-.7-.83-.66s-1.24.07-1.86.09c-5,.1-10.11.22-15.16.3-4.62.08-9.24.12-13.85.16q-10.38.09-20.75.16c-3.41,0-6.81,0-10.22,0h-1c.05.47.07.83.13,1.18.39,2.47.79,4.93,1.17,7.4.93,5.9,1.86,11.8,2.75,17.71.1.65.35.78.94.78,4.93-.06,9.85-.09,14.78-.12l9.45,0,36.39-.11Zm73.19-.51h1.07l25.62-.15,24.77-.12c3.1,0,6.2,0,9.29,0,.65,0,1-.11,1.05-.85a18.08,18.08,0,0,1,.42-2.27l3.66-19.9c.31-1.69.61-3.38.93-5.16-.37,0-.65-.06-.92,0-1.63.08-3.25.2-4.87.23-4.64.07-9.29.11-13.93.16-6.71.07-13.41.15-20.12.19s-13.37,0-20,0c-.49,0-1,.1-1.46.1s-.57.16-.64.58c-.21,1.4-.49,2.79-.74,4.18q-1.68,9.43-3.35,18.86C181.94,107.78,181.7,109.15,181.45,110.62Zm-68.9-26.91c0,.36,0,.59.07.81,1.63,8.46,3.28,16.93,4.88,25.4.15.8.44,1,1.24,1q21.2-.1,42.41-.17c3.35,0,6.71-.12,10.06-.14.63,0,.93-.23,1-.85s.23-1.37.35-2.06q1.74-9.84,3.49-19.69l.89-5H176l-5.42.1-13.38.15L143,83.4c-5.34,0-10.68.11-16,.15-3.4,0-6.81,0-10.21.06C115.37,83.62,114,83.67,112.55,83.71ZM114,141.28a4.2,4.2,0,0,0,0-.51c-1.26-6.54-2.53-13.09-3.77-19.64-.11-.57-.38-.67-.89-.67-13.57.05-27.15.06-40.72.12-6.14,0-12.28.12-18.42.21-1.65,0-3.29.1-5,.16,0,.18,0,.29,0,.39q1.52,9.76,3,19.54c.09.58.36.73.92.72q6.66-.1,13.31-.15,13.17-.09,26.32-.15c8,0,16.11,0,24.16,0Zm62-.18h1L185,141l15.4,0q18.15,0,36.3-.1c.67,0,.87-.23,1-.84q1.5-8.28,3-16.55c.22-1.23.43-2.46.67-3.79-.41,0-.72,0-1,0-5,0-9.91.08-14.86.1l-23.07,0c-7.22,0-14.45,0-21.67,0-.7,0-1,.2-1.09.91-.93,5.38-1.9,10.75-2.85,16.12C176.54,138.25,176.3,139.61,176,141.1Zm-56.52-20.69c.34,1.79.64,3.41,1,5q1.45,7.55,2.9,15.1c.08.44.24.61.69.62,1.16,0,2.32.1,3.48.1q16.33,0,32.67-.08c1.78,0,3.56-.07,5.34-.06.8,0,1.16-.23,1.3-1.08.93-5.46,1.92-10.91,2.88-16.36.2-1.13.38-2.26.59-3.52h-1.58q-19.16,0-38.33,0c-3,0-6,0-9,.1C120.83,120.28,120.23,120.36,119.52,120.41Z"/></g></g></svg>